<svg width="19" height="18" viewBox="0 0 19 18" fill="none" xmlns="http://www.w3.org/2000/svg">
<path d="M17.7434 12.38C16.5134 12.38 15.3234 12.18 14.2134 11.82C13.8634 11.7 13.4734 11.79 13.2034 12.06L11.6334 14.03C8.8034 12.68 6.1534 10.13 4.7434 7.2L6.6934 5.54C6.9634 5.26 7.0434 4.87 6.9334 4.52C6.5634 3.41 6.3734 2.22 6.3734 0.99C6.3734 0.45 5.9234 0 5.3834 0H1.9234C1.3834 0 0.733398 0.24 0.733398 0.99C0.733398 10.28 8.4634 18 17.7434 18C18.4534 18 18.7334 17.37 18.7334 16.82V13.37C18.7334 12.83 18.2834 12.38 17.7434 12.38Z" fill="white"/>
</svg>
